<?xml version="1.0" encoding="UTF-8" standalone="no"?>
<!-- Created with Inkscape (http://www.inkscape.org/) -->

<svg
   width="25"
   height="25"
   id="svg2493"
   sodipodi:version="0.32"
   inkscape:version="1.2.2 (b0a8486541, 2022-12-01)"
   sodipodi:docname="planets.svg"
   inkscape:output_extension="org.inkscape.output.svg.inkscape"
   version="1.1"
   inkscape:export-filename="planets.png"
   inkscape:export-xdpi="4.8000002"
   inkscape:export-ydpi="4.8000002"
   xmlns:inkscape="http://www.inkscape.org/namespaces/inkscape"
   xmlns:sodipodi="http://sodipodi.sourceforge.net/DTD/sodipodi-0.dtd"
   xmlns="http://www.w3.org/2000/svg"
   xmlns:svg="http://www.w3.org/2000/svg"
   xmlns:rdf="http://www.w3.org/1999/02/22-rdf-syntax-ns#"
   xmlns:cc="http://creativecommons.org/ns#"
   xmlns:dc="http://purl.org/dc/elements/1.1/">
  <defs
     id="defs2495">
    <linearGradient
       id="linearGradient3764">
      <stop
         style="stop-color:#ffffb7;stop-opacity:1;"
         offset="0"
         id="stop3766" />
      <stop
         id="stop3772"
         offset="0.5"
         style="stop-color:#f4e55b;stop-opacity:1;" />
      <stop
         style="stop-color:#ea9a00;stop-opacity:1;"
         offset="1"
         id="stop3768" />
    </linearGradient>
  </defs>
  <sodipodi:namedview
     id="base"
     pagecolor="#ffffff"
     bordercolor="#666666"
     borderopacity="1.0"
     inkscape:pageopacity="0.0"
     inkscape:pageshadow="2"
     inkscape:zoom="14.391706"
     inkscape:cx="19.733588"
     inkscape:cy="13.514729"
     inkscape:current-layer="layer1"
     showgrid="true"
     inkscape:document-units="px"
     inkscape:grid-bbox="true"
     inkscape:window-width="1920"
     inkscape:window-height="1011"
     inkscape:window-x="1920"
     inkscape:window-y="32"
     inkscape:window-maximized="1"
     inkscape:showpageshadow="2"
     inkscape:pagecheckerboard="true"
     inkscape:deskcolor="#d1d1d1" />
  <metadata
     id="metadata2498">
    <rdf:RDF>
      <cc:Work
         rdf:about="">
        <dc:format>image/svg+xml</dc:format>
        <dc:type
           rdf:resource="http://purl.org/dc/dcmitype/StillImage" />
      </cc:Work>
    </rdf:RDF>
  </metadata>
  <g
     id="layer1"
     inkscape:label="Layer 1"
     inkscape:groupmode="layer"
     transform="translate(0,-39)">
    <path
       id="planets"
       style="fill:#ffffff;stroke-width:0.0934871"
       d="M 12.501953 39.5 C 10.561631 39.5 8.7304493 39.968236 7.1074219 40.791016 C 6.4531065 40.145114 5.5537424 39.748047 4.5625 39.748047 C 2.5603829 39.748047 0.93164062 41.374836 0.93164062 43.376953 C 0.93164063 44.33454 1.3086207 45.206005 1.9179688 45.857422 C 1.0138562 47.539439 0.5 49.460571 0.5 51.501953 C 0.5 58.117653 5.8835429 63.500093 12.501953 63.5 C 19.11756 63.5 24.5 58.117653 24.5 51.501953 C 24.5 44.883542 19.117653 39.5 12.501953 39.5 z M 12.501953 40.976562 C 18.303287 40.976562 23.023438 45.697814 23.023438 51.501953 C 23.023437 57.303287 18.303287 62.023438 12.501953 62.023438 C 6.6978145 62.023438 1.9765625 57.303287 1.9765625 51.501953 C 1.9765625 49.777867 2.3990232 48.150627 3.1347656 46.712891 C 3.5756502 46.90108 4.0542113 47.007812 4.5625 47.007812 C 6.5646171 47.007812 8.1933594 45.381023 8.1933594 43.378906 C 8.1933594 42.901469 8.098151 42.443745 7.9296875 42.025391 C 9.311238 41.354248 10.864903 40.976562 12.501953 40.976562 z M 4.5625 41.224609 C 5.7502521 41.224609 6.7167969 42.1892 6.7167969 43.376953 C 6.7167969 44.564705 5.7502521 45.53125 4.5625 45.53125 C 3.3746545 45.53125 2.4101562 44.564705 2.4101562 43.376953 C 2.4101562 42.1892 3.374748 41.224609 4.5625 41.224609 z M 12.501953 44.054688 C 8.3966593 44.054688 5.0546875 47.393854 5.0546875 51.501953 C 5.0546875 55.607246 8.3966593 58.945312 12.501953 58.945312 C 13.695314 58.945312 14.817852 58.656032 15.820312 58.15625 C 16.213425 58.456718 16.704751 58.638672 17.238281 58.638672 C 18.529897 58.638672 19.578125 57.592491 19.578125 56.300781 C 19.578125 55.77847 19.404483 55.298511 19.115234 54.908203 C 19.643155 53.886109 19.949219 52.729063 19.949219 51.501953 C 19.949219 47.393854 16.607246 44.054688 12.501953 44.054688 z M 12.501953 45.53125 C 15.792882 45.53125 18.470703 48.208126 18.470703 51.501953 C 18.470703 52.414572 18.257394 53.27968 17.886719 54.054688 C 17.681795 53.995698 17.465735 53.960938 17.238281 53.960938 C 15.946665 53.960938 14.902344 55.009072 14.902344 56.300781 C 14.902344 56.517016 14.932948 56.720514 14.986328 56.919922 C 14.228148 57.268068 13.389238 57.46875 12.501953 57.46875 C 9.2110249 57.46875 6.53125 54.792975 6.53125 51.501953 C 6.53125 48.208219 9.2110249 45.53125 12.501953 45.53125 z M 12.501953 48.175781 C 10.668393 48.175781 9.1757812 49.668393 9.1757812 51.501953 C 9.1757813 53.332801 10.6683 54.824219 12.501953 54.824219 C 14.332802 54.824219 15.824219 53.332801 15.824219 51.501953 C 15.824219 49.668299 14.332802 48.175781 12.501953 48.175781 z M 12.501953 49.654297 C 13.518437 49.654297 14.345703 50.482664 14.345703 51.501953 C 14.345703 52.518437 13.518437 53.345703 12.501953 53.345703 C 11.482665 53.345703 10.654297 52.51853 10.654297 51.501953 C 10.654297 50.482664 11.482665 49.654297 12.501953 49.654297 z " />
  </g>
</svg>
