<?xml version="1.0" encoding="UTF-8" standalone="no"?>
<!-- Created with Inkscape (http://www.inkscape.org/) -->

<svg
   width="25"
   height="25"
   id="svg2493"
   sodipodi:version="0.32"
   inkscape:version="1.2.2 (b0a8486541, 2022-12-01)"
   sodipodi:docname="telescope.svg"
   inkscape:output_extension="org.inkscape.output.svg.inkscape"
   version="1.1"
   inkscape:export-filename="/home/akarsh/devel/kde-devel/src/kstars/kstars/icons/64-actions-kstars_fov.png"
   inkscape:export-xdpi="90"
   inkscape:export-ydpi="90"
   xmlns:inkscape="http://www.inkscape.org/namespaces/inkscape"
   xmlns:sodipodi="http://sodipodi.sourceforge.net/DTD/sodipodi-0.dtd"
   xmlns="http://www.w3.org/2000/svg"
   xmlns:svg="http://www.w3.org/2000/svg"
   xmlns:rdf="http://www.w3.org/1999/02/22-rdf-syntax-ns#"
   xmlns:cc="http://creativecommons.org/ns#"
   xmlns:dc="http://purl.org/dc/elements/1.1/">
  <defs
     id="defs2495">
    <linearGradient
       id="linearGradient3764">
      <stop
         style="stop-color:#ffffb7;stop-opacity:1;"
         offset="0"
         id="stop3766" />
      <stop
         id="stop3772"
         offset="0.5"
         style="stop-color:#f4e55b;stop-opacity:1;" />
      <stop
         style="stop-color:#ea9a00;stop-opacity:1;"
         offset="1"
         id="stop3768" />
    </linearGradient>
  </defs>
  <sodipodi:namedview
     id="base"
     pagecolor="#ffffff"
     bordercolor="#666666"
     borderopacity="1.0"
     inkscape:pageopacity="0.0"
     inkscape:pageshadow="2"
     inkscape:zoom="31.107133"
     inkscape:cx="12.698052"
     inkscape:cy="12.167627"
     inkscape:current-layer="layer1"
     showgrid="true"
     inkscape:document-units="px"
     inkscape:grid-bbox="true"
     inkscape:window-width="1452"
     inkscape:window-height="749"
     inkscape:window-x="2285"
     inkscape:window-y="46"
     inkscape:window-maximized="0"
     inkscape:showpageshadow="2"
     inkscape:pagecheckerboard="true"
     inkscape:deskcolor="#d1d1d1" />
  <metadata
     id="metadata2498">
    <rdf:RDF>
      <cc:Work
         rdf:about="">
        <dc:format>image/svg+xml</dc:format>
        <dc:type
           rdf:resource="http://purl.org/dc/dcmitype/StillImage" />
      </cc:Work>
    </rdf:RDF>
  </metadata>
  <g
     id="layer1"
     inkscape:label="Layer 1"
     inkscape:groupmode="layer"
     transform="translate(0,-39)">
    <path
       id="telescope"
       style="fill:#ffffff;stroke-width:0.0468749"
       d="M 22.398438 41.148438 C 22.341961 41.148886 22.28459 41.15432 22.228516 41.166016 L 19.576172 41.71875 C 19.429688 41.74917 19.299859 41.813834 19.193359 41.904297 C 18.959783 42.102578 18.83936 42.419143 18.90625 42.740234 L 20.136719 48.650391 C 20.183449 48.874921 20.318001 49.071594 20.509766 49.197266 C 20.579796 49.243206 20.655579 49.277013 20.734375 49.300781 C 20.815185 49.325111 20.897813 49.337891 20.982422 49.337891 C 21.041162 49.337891 21.101703 49.332402 21.160156 49.320312 L 23.810547 48.767578 C 24.277936 48.670218 24.579781 48.21167 24.482422 47.744141 L 23.251953 41.835938 C 23.205223 41.611407 23.070671 41.414733 22.878906 41.289062 C 22.735012 41.194773 22.567868 41.147093 22.398438 41.148438 z M 18.425781 43.021484 L 6.2617188 45.554688 C 6.0371884 45.601517 5.8405619 45.735924 5.7148438 45.927734 C 5.5891255 46.119499 5.5450158 46.351735 5.5917969 46.576172 L 5.59375 46.583984 L 2.6503906 47.195312 L 3.453125 51.052734 L 6.3964844 50.439453 L 6.3964844 50.445312 C 6.4814683 50.853357 6.8411266 51.134766 7.2421875 51.134766 C 7.3005934 51.134766 7.3605314 51.127514 7.4199219 51.115234 L 10.505859 50.472656 C 10.433629 50.199986 10.396484 49.914264 10.396484 49.619141 C 10.396484 47.778085 11.893366 46.28125 13.734375 46.28125 C 15.403727 46.28125 16.790938 47.513053 17.035156 49.115234 L 19.583984 48.583984 L 18.425781 43.021484 z M 13.734375 46.896484 C 12.232834 46.896484 11.011719 48.117553 11.011719 49.619141 C 11.011719 51.120728 12.232834 52.34375 13.734375 52.34375 C 15.235915 52.34375 16.457031 51.120728 16.457031 49.619141 C 16.457031 48.117553 15.235915 46.896484 13.734375 46.896484 z M 1.3339844 47.205078 C 1.286008 47.206613 1.2380857 47.212531 1.1894531 47.222656 C 0.72197059 47.320016 0.42031289 47.778564 0.51757812 48.246094 L 1.0234375 50.675781 L 1.0800781 50.941406 C 1.165062 51.349451 1.5247204 51.628906 1.9257812 51.628906 C 1.9841872 51.628906 2.0421721 51.623608 2.1015625 51.611328 C 2.1988744 51.591028 2.2884222 51.554139 2.3691406 51.505859 C 2.6763582 51.321923 2.8505934 50.958154 2.7734375 50.587891 L 2.2109375 47.892578 C 2.1338754 47.522454 1.8314986 47.259062 1.4765625 47.212891 C 1.4298985 47.206846 1.3819607 47.203543 1.3339844 47.205078 z M 13.734375 48.625 C 14.282341 48.625 14.728516 49.071127 14.728516 49.619141 C 14.728516 50.167107 14.282341 50.613281 13.734375 50.613281 C 13.186408 50.613281 12.740234 50.167107 12.740234 49.619141 C 12.740234 49.071127 13.186408 48.625 13.734375 48.625 z M 15.552734 52.417969 C 15.074752 52.729545 14.512513 52.937625 13.908203 52.96875 L 15.390625 57.548828 L 12.078125 57.548828 L 13.560547 52.966797 C 12.956237 52.935672 12.394044 52.737358 11.916016 52.425781 L 9.2226562 60.716797 C 9.0751412 61.170967 9.3230799 61.657267 9.7773438 61.804688 C 10.231561 61.952156 10.71972 61.71594 10.867188 61.261719 L 11.515625 59.279297 L 15.953125 59.279297 L 16.601562 61.261719 C 16.720249 61.627249 17.059235 61.851562 17.423828 61.851562 C 17.512238 61.851562 17.602719 61.835471 17.691406 61.806641 C 18.145577 61.659125 18.393515 61.168966 18.246094 60.714844 L 15.552734 52.417969 z " />
  </g>
</svg>
